<svg height="100%" width="100%" id="svg" viewBox="0 0 1440 700" xmlns="http://www.w3.org/2000/svg" class="transition duration-300 ease-in-out delay-150"><path d="M 0,700 C 0,700 0,175 0,175 C 109.76076555023923,163.89952153110048 219.52153110047846,152.79904306220095 322,163 C 424.47846889952154,173.20095693779905 519.6746411483253,204.70334928229667 620,200 C 720.3253588516747,195.29665071770333 825.77990430622,154.38755980861245 915,150 C 1004.22009569378,145.61244019138755 1077.2057416267944,177.7464114832536 1162,188 C 1246.7942583732056,198.2535885167464 1343.3971291866028,186.6267942583732 1440,175 C 1440,175 1440,700 1440,700 Z" stroke="none" stroke-width="0" fill="#9900ef66" class="transition-all duration-300 ease-in-out delay-150"></path><path d="M 0,700 C 0,700 0,350 0,350 C 112.23923444976077,376.72727272727275 224.47846889952154,403.45454545454544 301,394 C 377.52153110047846,384.54545454545456 418.32535885167465,338.90909090909093 524,336 C 629.6746411483253,333.09090909090907 800.2200956937801,372.9090909090909 910,382 C 1019.7799043062199,391.0909090909091 1068.7942583732058,369.45454545454544 1147,359 C 1225.2057416267942,348.54545454545456 1332.6028708133972,349.27272727272725 1440,350 C 1440,350 1440,700 1440,700 Z" stroke="none" stroke-width="0" fill="#9900ef88" class="transition-all duration-300 ease-in-out delay-150"></path><path d="M 0,700 C 0,700 0,525 0,525 C 79.41626794258374,551.6794258373207 158.8325358851675,578.3588516746412 250,569 C 341.1674641148325,559.6411483253588 444.0861244019138,514.2440191387559 547,484 C 649.9138755980862,453.75598086124404 752.8229665071771,438.665071770335 865,464 C 977.1770334928229,489.334928229665 1098.6220095693782,555.0956937799043 1196,572 C 1293.3779904306218,588.9043062200957 1366.688995215311,556.9521531100479 1440,525 C 1440,525 1440,700 1440,700 Z" stroke="none" stroke-width="0" fill="#9900efff" class="transition-all duration-300 ease-in-out delay-150"></path></svg>